<svg width="1024" height="692" xmlns="http://www.w3.org/2000/svg" xmlns:xlink="http://www.w3.org/1999/xlink" overflow="hidden"><defs><clipPath id="clip0"><rect x="69" y="57" width="1024" height="692"/></clipPath></defs><g clip-path="url(#clip0)" transform="translate(-69 -57)"><path d="M423 223.698C423 204.535 438.535 189 457.698 189L781.302 189C800.465 189 816 204.535 816 223.698L816 580.302C816 599.465 800.465 615 781.302 615L457.698 615C438.535 615 423 599.465 423 580.302Z" fill="#3A3C3A" fill-rule="evenodd"/><rect x="423" y="187" width="393" height="113" fill="#3A3C3A"/><path d="M690 229.5C690 219.283 698.283 211 708.5 211 718.717 211 727 219.283 727 229.5 727 239.717 718.717 248 708.5 248 698.283 248 690 239.717 690 229.5Z" fill="#C5D3CC" fill-rule="evenodd"/><path d="M0 395 0 0 52 395Z" fill="#2B2D2B" fill-rule="evenodd" transform="matrix(1 0 0 -1 423 583)"/><path d="M514 229.5C514 219.283 522.283 211 532.5 211 542.717 211 551 219.283 551 229.5 551 239.717 542.717 248 532.5 248 522.283 248 514 239.717 514 229.5Z" fill="#C5D3CC" fill-rule="evenodd"/><path d="M523 229.718C523.089 134.725 567.037 57.8443 621.161 58.0001 675.285 58.1558 719.089 135.289 719 230.282 719 230.88 718.997 231.479 718.993 232.077L699.358 231.661C699.83 147.518 665.13 78.5634 621.854 77.6461 578.578 76.7287 543.114 144.196 542.642 228.339 542.639 228.817 542.638 229.296 542.637 229.774Z" fill="#242423" fill-rule="evenodd"/><path d="M523.235 238.842C518.098 233.648 518.146 225.272 523.341 220.136 526.476 217.036 529.611 213.936 532.747 210.836 535.847 213.971 538.947 217.106 542.047 220.242 547.184 225.436 547.136 233.812 541.941 238.948 536.747 244.085 528.371 244.037 523.235 238.842Z" fill="#242423" fill-rule="evenodd"/><path d="M699.297 238.842C694.161 233.648 694.208 225.272 699.403 220.136 702.538 217.036 705.674 213.936 708.809 210.836 711.909 213.971 715.009 217.106 718.109 220.242 723.246 225.436 723.198 233.812 718.004 238.948 712.809 244.085 704.434 244.037 699.297 238.842Z" fill="#242423" fill-rule="evenodd"/><path d="M0.0870168 367.471C0.0580339 244.981 0.028983 122.49 0 0 16.5317 132.066 33.4683 264.934 50 397 44.971 391.417 10.2742 410.882 0.0870168 367.471Z" fill="#2B2D2B" fill-rule="evenodd" transform="matrix(-1 1.22465e-16 1.22465e-16 1 816 219)"/><text fill="#C9980D" font-family="Biome,Biome_MSFontService,sans-serif" font-weight="700" font-size="319" transform="translate(346.646 473)">Me<tspan font-family="Calibri,Calibri_MSFontService,sans-serif" x="-85.34" y="0"> </tspan><tspan fill="#F3C33F" x="11.8718" y="-1">Me</tspan><tspan fill="#F3C33F" font-family="Calibri,Calibri_MSFontService,sans-serif" x="-73.4682" y="-1"> </tspan></text><text fill="#E7E6E6" font-family="Nehama,Nehama_MSFontService,sans-serif" font-weight="700" font-size="140" direction="rtl" writing-mode="rl-tb" transform="translate(523.244 577)" x="237">קונה<tspan x="-3.05176e-05" y="0">?</tspan></text><text fill="#E7E6E6" font-family="Nehama,Nehama_MSFontService,sans-serif" font-weight="700" font-size="140" transform="translate(439.411 577)"> </text></g></svg>